# File produced by Open Asset Import Library (http://www.assimp.sf.net)
# (assimp v3.1.151580502)

mtllib Antorcha.mtl

# 128 vertex positions
v  0.217069 1.33391 -0.0790067
v  0.217069 -1.33391 -0.0790067
v  0.176957 -1.33391 -0.148484
v  0.176957 1.33391 -0.148484
v  0.1155 -1.33391 -0.200052
v  0.1155 1.33391 -0.200052
v  0.0401129 -1.33391 -0.227491
v  0.0401129 1.33391 -0.227491
v  -0.0401127 -1.33391 -0.227491
v  -0.0401127 1.33391 -0.227491
v  -0.1155 -1.33391 -0.200052
v  -0.1155 1.33391 -0.200052
v  -0.176957 -1.33391 -0.148484
v  -0.176957 1.33391 -0.148484
v  -0.217069 -1.33391 -0.0790068
v  -0.217069 1.33391 -0.0790068
v  -0.231 -1.33391 -5.50748e-08
v  -0.231 1.33391 -5.50748e-08
v  -0.217069 -1.33391 0.0790067
v  -0.217069 1.33391 0.0790067
v  -0.176957 -1.33391 0.148484
v  -0.176957 1.33391 0.148484
v  -0.1155 -1.33391 0.200052
v  -0.1155 1.33391 0.200052
v  -0.0401128 -1.33391 0.227491
v  -0.0401128 1.33391 0.227491
v  0.0401128 -1.33391 0.227491
v  0.0401128 1.33391 0.227491
v  0.1155 -1.33391 0.200052
v  0.1155 1.33391 0.200052
v  0.176957 -1.33391 0.148484
v  0.176957 1.33391 0.148484
v  0.217069 -1.33391 0.0790068
v  0.217069 1.33391 0.0790068
v  0.231 -1.33391 0
v  0.231 1.33391 0
v  0.867301 2.00828 -0.315672
v  0.867301 1.76533 -0.315672
v  0.707031 1.76533 -0.593269
v  0.707031 2.00828 -0.593269
v  0.461482 1.76533 -0.799309
v  0.461482 2.00828 -0.799309
v  0.160271 1.76533 -0.908941
v  0.160271 2.00828 -0.908941
v  -0.16027 1.76533 -0.908941
v  -0.16027 2.00828 -0.908941
v  -0.461481 1.76533 -0.799309
v  -0.461481 2.00828 -0.799309
v  -0.70703 1.76533 -0.593269
v  -0.70703 2.00828 -0.593269
v  -0.867301 1.76533 -0.315672
v  -0.867301 2.00828 -0.315672
v  -0.922963 1.76533 -2.20051e-07
v  -0.922963 2.00828 -2.20051e-07
v  -0.867301 1.76533 0.315672
v  -0.867301 2.00828 0.315672
v  -0.707031 1.76533 0.593269
v  -0.707031 2.00828 0.593269
v  -0.461481 1.76533 0.799309
v  -0.461481 2.00828 0.799309
v  -0.160271 1.76533 0.908941
v  -0.160271 2.00828 0.908941
v  0.160271 1.76533 0.908941
v  0.160271 2.00828 0.908941
v  0.461481 1.76533 0.799309
v  0.461481 2.00828 0.799309
v  0.70703 1.76533 0.593269
v  0.70703 2.00828 0.593269
v  0.867301 1.76533 0.315672
v  0.867301 2.00828 0.315672
v  0.922963 1.76533 0
v  0.922963 2.00828 0
v  0 1.05097 0
v  0.800994 2.00296 -0.291538
v  0.652976 2.00296 -0.547912
v  2.38699e-09 1.39662 0
v  0.4262 2.00296 -0.7382
v  0.148018 2.00296 -0.83945
v  -0.148017 2.00296 -0.83945
v  -0.4262 2.00296 -0.7382
v  -0.652976 2.00296 -0.547912
v  -0.800994 2.00296 -0.291538
v  -0.8524 2.00296 -2.03228e-07
v  -0.800994 2.00296 0.291538
v  -0.652976 2.00296 0.547912
v  -0.4262 2.00296 0.7382
v  -0.148018 2.00296 0.83945
v  0.148018 2.00296 0.83945
v  0.4262 2.00296 0.7382
v  0.652976 2.00296 0.547912
v  0.800994 2.00296 0.291538
v  0.8524 2.00296 0
v  0.576286 2.6936 -0.209751
v  0.626462 2.69776 -0.228013
v  0.510697 2.69776 -0.428525
v  0.469793 2.6936 -0.394203
v  0.306636 2.6936 -0.531108
v  0.333333 2.69776 -0.57735
v  0.115766 2.69776 -0.656538
v  0.106494 2.6936 -0.603954
v  -0.106493 2.6936 -0.603954
v  -0.115765 2.69776 -0.656538
v  -0.333333 2.69776 -0.577351
v  -0.306635 2.6936 -0.531108
v  -0.469792 2.6936 -0.394203
v  -0.510696 2.69776 -0.428525
v  -0.626462 2.69776 -0.228014
v  -0.576286 2.6936 -0.209751
v  -0.613271 2.6936 -1.46215e-07
v  -0.666666 2.69776 -1.58946e-07
v  -0.626462 2.69776 0.228013
v  -0.576286 2.6936 0.209751
v  -0.469793 2.6936 0.394203
v  -0.510696 2.69776 0.428525
v  -0.333333 2.69776 0.577351
v  -0.306635 2.6936 0.531108
v  -0.106493 2.6936 0.603954
v  -0.115766 2.69776 0.656538
v  0.115765 2.69776 0.656538
v  0.106493 2.6936 0.603954
v  0.306635 2.6936 0.531108
v  0.333333 2.69776 0.577351
v  0.510696 2.69776 0.428525
v  0.469793 2.6936 0.394203
v  0.576286 2.6936 0.209751
v  0.626462 2.69776 0.228013
v  0.666667 2.69776 0
v  0.613271 2.6936 0

# 240 UV coordinates
vt 0.627253 0.697769 0
vt 0.62134 0.327455 0
vt 0.632476 0.327277 0
vt 0.638389 0.697591 0
vt 0.643612 0.3271 0
vt 0.649525 0.697413 0
vt 0.654748 0.326922 0
vt 0.66066 0.697235 0
vt 0.665884 0.326744 0
vt 0.671797 0.697057 0
vt 0.677019 0.326566 0
vt 0.682932 0.69688 0
vt 0.688155 0.326388 0
vt 0.694068 0.696702 0
vt 0.699291 0.326211 0
vt 0.705204 0.696524 0
vt 0.710427 0.326033 0
vt 0.71634 0.696346 0
vt 0.721563 0.325855 0
vt 0.727476 0.696168 0
vt 0.732699 0.325677 0
vt 0.738612 0.695991 0
vt 0.743835 0.325499 0
vt 0.749748 0.695813 0
vt 0.549301 0.699013 0
vt 0.543388 0.3287 0
vt 0.554524 0.328522 0
vt 0.560437 0.698835 0
vt 0.56566 0.328344 0
vt 0.571573 0.698658 0
vt 0.576796 0.328167 0
vt 0.582709 0.69848 0
vt 0.587932 0.327989 0
vt 0.593845 0.698302 0
vt 0.599068 0.327811 0
vt 0.604981 0.698124 0
vt 0.610204 0.327633 0
vt 0.616117 0.697946 0
vt 0.424165 0.276028 0
vt 0.45219 0.276028 0
vt 0.45219 0.298976 0
vt 0.424165 0.298976 0
vt 0.45219 0.321651 0
vt 0.424165 0.321651 0
vt 0.45219 0.344322 0
vt 0.424165 0.344322 0
vt 0.45219 0.367215 0
vt 0.424165 0.367215 0
vt 0.45219 0.390449 0
vt 0.424165 0.390449 0
vt 0.45219 0.413895 0
vt 0.424165 0.413895 0
vt 0.45219 0.437478 0
vt 0.424165 0.437478 0
vt 0.45219 0.461401 0
vt 0.424165 0.461401 0
vt 0.45219 0.485651 0
vt 0.424165 0.485651 0
vt 0.45219 0.510209 0
vt 0.424165 0.510209 0
vt 0.424165 0.00295871 0
vt 0.45219 0.00295871 0
vt 0.45219 0.0549576 0
vt 0.424165 0.0549576 0
vt 0.45219 0.0985622 0
vt 0.424165 0.0985622 0
vt 0.45219 0.136723 0
vt 0.424165 0.136723 0
vt 0.45219 0.170705 0
vt 0.424165 0.170705 0
vt 0.45219 0.200781 0
vt 0.424165 0.200781 0
vt 0.45219 0.22764 0
vt 0.424165 0.22764 0
vt 0.45219 0.25243 0
vt 0.424165 0.25243 0
vt 0.235044 0.0523292 0
vt 0.255333 0.0294019 0
vt 0.308997 0.107756 0
vt 0.223256 0.07998 0
vt 0.220896 0.109453 0
vt 0.227957 0.13773 0
vt 0.24351 0.161964 0
vt 0.265809 0.179746 0
vt 0.292459 0.189334 0
vt 0.320658 0.189809 0
vt 0.347462 0.181167 0
vt 0.370071 0.164308 0
vt 0.386103 0.14096 0
vt 0.393814 0.113502 0
vt 0.392283 0.0847468 0
vt 0.381495 0.0576711 0
vt 0.362364 0.035127 0
vt 0.336645 0.0195698 0
vt 0.306784 0.0128127 0
vt 0.442944 0.845349 0
vt 0.377298 0.859208 0
vt 0.350585 0.665194 0
vt 0.312202 0.851099 0
vt 0.254565 0.822681 0
vt 0.210344 0.777676 0
vt 0.183966 0.721451 0
vt 0.177897 0.660451 0
vt 0.192421 0.601523 0
vt 0.225629 0.551213 0
vt 0.273635 0.515095 0
vt 0.330984 0.497202 0
vt 0.391218 0.499608 0
vt 0.447542 0.522215 0
vt 0.493527 0.562751 0
vt 0.523779 0.61699 0
vt 0.534506 0.679166 0
vt 0.523933 0.742552 0
vt 0.492518 0.80014 0
vt 0.091596 0.134869 0
vt 0.0946416 0.131345 0
vt 0.108369 0.14607 0
vt 0.104273 0.148291 0
vt 0.781879 0.0728454 0
vt 0.79459 0.0677088 0
vt 0.807461 0.128458 0
vt 0.793732 0.129021 0
vt 0.763531 0.267819 0
vt 0.773903 0.267376 0
vt 0.768732 0.31212 0
vt 0.758407 0.309079 0
vt 0.104984 0.642096 0
vt 0.114653 0.637323 0
vt 0.128331 0.684222 0
vt 0.117647 0.68543 0
vt 0.101894 0.795143 0
vt 0.109764 0.79412 0
vt 0.1101 0.825824 0
vt 0.101993 0.824509 0
vt 0.938589 0.208521 0
vt 0.934071 0.211481 0
vt 0.924418 0.189119 0
vt 0.929699 0.187807 0
vt 0.930374 0.131265 0
vt 0.926168 0.132311 0
vt 0.924636 0.110907 0
vt 0.929493 0.11166 0
vt 0.943579 0.876347 0
vt 0.935698 0.886875 0
vt 0.894913 0.843411 0
vt 0.906003 0.836225 0
vt 0.863602 0.706161 0
vt 0.855204 0.71162 0
vt 0.837075 0.67171 0
vt 0.847147 0.66937 0
vt 0.232446 0.536703 0
vt 0.215978 0.546378 0
vt 0.185753 0.465375 0
vt 0.204551 0.461879 0
vt 0.219176 0.264742 0
vt 0.204866 0.267412 0
vt 0.20348 0.203908 0
vt 0.217961 0.206094 0
vt 0.524835 0.399963 0
vt 0.509515 0.400786 0
vt 0.517847 0.331896 0
vt 0.532509 0.336148 0
vt 0.612648 0.200644 0
vt 0.60165 0.197732 0
vt 0.618615 0.153848 0
vt 0.628341 0.159668 0
vt 0.891478 0.148815 0
vt 0.896138 0.144107 0
vt 0.913652 0.168598 0
vt 0.907616 0.17141 0
vt 0.919439 0.239266 0
vt 0.924081 0.237364 0
vt 0.92658 0.259549 0
vt 0.921286 0.259313 0
vt 0.534942 0.710386 0
vt 0.539531 0.703023 0
vt 0.568962 0.729286 0
vt 0.561793 0.734621 0
vt 0.595322 0.821974 0
vt 0.601046 0.817779 0
vt 0.617317 0.847286 0
vt 0.609651 0.849307 0
vt 0.0352186 0.0678153 0
vt 0.0376517 0.0621775 0
vt 0.0608664 0.077398 0
vt 0.0567489 0.0819336 0
vt 0.138799 0.0849972 0
vt 0.157798 0.105417 0
vt 0.152388 0.193484 0
vt 0.146696 0.196072 0
vt 0.061312 0.194748 0
vt 0.0435087 0.17626 0
vt 0.916025 0.274754 0
vt 0.909422 0.336304 0
vt 0.767312 0.460786 0
vt 0.753609 0.45669 0
vt 0.615704 0.299022 0
vt 0.623073 0.241576 0
vt 0.209631 0.78688 0
vt 0.209631 0.831059 0
vt 0.124101 0.942063 0
vt 0.112983 0.940244 0
vt 0.00232649 0.83092 0
vt 0.00199205 0.790418 0
vt 0.858196 0.141619 0
vt 0.856109 0.111743 0
vt 0.917093 0.0439662 0
vt 0.923477 0.045054 0
vt 0.996791 0.104776 0
vt 0.998008 0.132149 0
vt 0.732604 0.777263 0
vt 0.707565 0.722196 0
vt 0.769065 0.546308 0
vt 0.782465 0.543367 0
vt 0.970207 0.605895 0
vt 0.99302 0.657115 0
vt 0.00356966 0.283792 0
vt 0.00199203 0.195933 0
vt 0.177726 0.00444961 0
vt 0.196849 0.00738311 0
vt 0.418834 0.190076 0
vt 0.420669 0.271705 0
vt 0.459345 0.152928 0
vt 0.482614 0.0920565 0
vt 0.658945 0.00188684 0
vt 0.671918 0.00966871 0
vt 0.771258 0.205036 0
vt 0.749646 0.261818 0
vt 0.993439 0.225257 0
vt 0.997275 0.255487 0
vt 0.94355 0.330372 0
vt 0.93655 0.330053 0
vt 0.852406 0.268658 0
vt 0.850245 0.24067 0
vt 0.691681 0.760471 0
vt 0.71371 0.800519 0
vt 0.671138 0.942858 0
vt 0.660875 0.94528 0
vt 0.518665 0.904551 0
vt 0.498435 0.866453 0

# 257 vertex normals
vn 0.939693 0 -0.34202
vn 0.766045 0 -0.642787
vn 0.5 0 -0.866025
vn 0.173648 0 -0.984808
vn -0.173648 0 -0.984808
vn -0.5 0 -0.866026
vn -0.766044 0 -0.642788
vn -0.939693 0 -0.34202
vn -1 0 -1.9128e-07
vn -0.939693 0 0.34202
vn -0.766045 0 0.642787
vn -0.5 0 0.866025
vn -0.173648 0 0.984808
vn 0.173648 0 0.984808
vn 0.5 0 0.866025
vn 0.766044 0 0.642788
vn 0.939693 0 0.34202
vn 1 0 1.06892e-07
vn 0.939693 0 -0.34202
vn 0.766044 0 -0.642788
vn 0.5 0 -0.866025
vn 0.173649 0 -0.984808
vn -0.173648 0 -0.984808
vn -0.5 0 -0.866026
vn -0.939693 0 -0.34202
vn -1 0 -2.8605e-07
vn -0.939693 0 0.34202
vn -0.766044 0 0.642788
vn -0.5 0 0.866025
vn -0.173648 0 0.984808
vn 0.173648 0 0.984808
vn 0.5 0 0.866025
vn 0.766044 0 0.642788
vn 0.939693 0 0.34202
vn 1 0 2.01008e-07
vn 0.468874 -0.790802 -0.393432
vn 0.575159 -0.790802 -0.209341
vn -6.96128e-08 -1 1.16666e-07
vn 0.306036 -0.790802 -0.53007
vn 0.106285 -0.790802 -0.602773
vn -0.106285 -0.790802 -0.602773
vn -0.306036 -0.790802 -0.53007
vn -0.468874 -0.790802 -0.393432
vn -0.575159 -0.790802 -0.209341
vn -0.612072 -0.790802 -3.21041e-07
vn -0.575159 -0.790802 0.209341
vn -0.468874 -0.790802 0.393432
vn -0.306036 -0.790802 0.53007
vn -0.106285 -0.790802 0.602773
vn 0.106285 -0.790802 0.602773
vn 0.306036 -0.790802 0.53007
vn 0.468874 -0.790802 0.393432
vn 0.575159 -0.790802 0.209341
vn 0.612072 -0.790802 3.21042e-07
vn -0.544686 0.814871 0.19825
vn -0.444032 0.814871 0.372587
vn 9.38534e-08 1 -9.38534e-08
vn -0.289821 0.814871 0.501985
vn -0.100654 0.814871 0.570837
vn 0.100654 0.814871 0.570837
vn 0.289821 0.814871 0.501985
vn 0.444032 0.814871 0.372588
vn 0.544686 0.814871 0.19825
vn 0.579642 0.814871 -4.27468e-09
vn 0.544686 0.814871 -0.198249
vn 0.444032 0.814871 -0.372587
vn 0.289821 0.814871 -0.501985
vn 0.100654 0.814871 -0.570836
vn -0.100654 0.814871 -0.570836
vn -0.289821 0.814871 -0.501985
vn -0.444032 0.814871 -0.372587
vn -0.544686 0.814871 -0.19825
vn -0.579642 0.814871 8.54936e-09
vn -0.0684488 0.996872 0.0395213
vn -0.0684488 0.996872 0.0395213
vn -0.0684488 0.996871 0.0395213
vn -0.0684487 0.996871 0.0395213
vn -0.0490232 0.997087 0.0584238
vn -0.0490232 0.997087 0.0584238
vn -0.0490231 0.997087 0.0584238
vn -0.0270325 0.996871 0.0742746
vn -0.0270325 0.996871 0.0742746
vn -0.0270325 0.996871 0.0742746
vn -0.0270325 0.996871 0.0742746
vn -4.33459e-08 0.997088 0.0762651
vn -4.33459e-08 0.997088 0.0762651
vn -4.33459e-08 0.997088 0.0762651
vn -4.33459e-08 0.997088 0.0762651
vn 0.0270325 0.996872 0.0742712
vn 0.0270325 0.996872 0.0742712
vn 0.0490231 0.997087 0.0584226
vn 0.0490231 0.997088 0.0584227
vn 0.0490231 0.997087 0.0584226
vn 0.0684486 0.996872 0.0395174
vn 0.0684486 0.996872 0.0395174
vn 0.0684486 0.996872 0.0395174
vn 0.0751076 0.997087 0.0132437
vn 0.0751076 0.997087 0.0132437
vn 0.0751076 0.997088 0.0132437
vn 0.0751076 0.997087 0.0132437
vn 0.0778374 0.996872 -0.0137242
vn 0.0778374 0.996872 -0.0137242
vn 0.0778374 0.996872 -0.0137242
vn 0.0778374 0.996872 -0.0137242
vn 0.0660487 0.997087 -0.0381333
vn 0.0660487 0.997088 -0.0381333
vn 0.0660487 0.997087 -0.0381333
vn 0.0508045 0.996872 -0.0605477
vn 0.0508045 0.996872 -0.0605477
vn 0.0508045 0.996872 -0.0605477
vn 0.0508045 0.996872 -0.0605478
vn 0.0260847 0.997087 -0.0716678
vn 0.0260847 0.997087 -0.0716678
vn 0.0260847 0.997087 -0.0716678
vn 0.0260847 0.997087 -0.0716678
vn 3.97185e-08 0.996872 -0.0790322
vn 3.97185e-08 0.996872 -0.0790322
vn 3.97185e-08 0.996872 -0.0790322
vn 3.97185e-08 0.996872 -0.0790322
vn -0.0260847 0.997087 -0.0716672
vn -0.0260847 0.997087 -0.0716672
vn -0.0260847 0.997087 -0.0716672
vn -0.0508045 0.996872 -0.0605465
vn -0.0508045 0.996872 -0.0605465
vn -0.0508045 0.996872 -0.0605465
vn -0.0508045 0.996872 -0.0605465
vn -0.0660486 0.997087 -0.0381329
vn -0.0660486 0.997087 -0.038133
vn -0.0660486 0.997087 -0.0381329
vn -0.0778373 0.996872 -0.0137242
vn -0.0778373 0.996872 -0.0137241
vn -0.0778373 0.996872 -0.0137241
vn -0.0778373 0.996872 -0.0137242
vn -0.0751079 0.997087 0.0132438
vn -0.0751079 0.997087 0.0132438
vn -0.0751079 0.997087 0.0132438
vn 0.813247 0.343762 -0.469528
vn 0.813247 0.343762 -0.469528
vn 0.813247 0.343762 -0.469528
vn 0.813247 0.343762 -0.469528
vn -0.642787 1.69546e-07 -0.766045
vn -0.642787 1.69546e-07 -0.766045
vn -0.642787 1.69546e-07 -0.766045
vn -0.642787 1.69546e-07 -0.766045
vn -0.819683 -0.322738 0.473244
vn -0.819683 -0.322738 0.473244
vn -0.819683 -0.322738 0.473244
vn -0.819683 -0.322738 0.473244
vn 0.34202 -4.23866e-07 0.939693
vn 0.34202 -4.23866e-07 0.939693
vn 0.34202 -4.23866e-07 0.939693
vn 0.34202 -4.23866e-07 0.939693
vn 0.321176 0.343762 -0.882425
vn 0.321177 0.343762 -0.882425
vn 0.321177 0.343762 -0.882425
vn -0.984808 0 -0.173648
vn -0.984808 0 -0.173648
vn -0.984808 0 -0.173648
vn -0.323718 -0.322738 0.889408
vn -0.323718 -0.322738 0.889408
vn 0.866026 6.78184e-07 0.499999
vn 0.866026 6.78184e-07 0.499999
vn 0.866026 6.78184e-07 0.499999
vn 0.866026 6.78184e-07 0.499999
vn -0.321176 0.343762 -0.882425
vn -0.321176 0.343762 -0.882425
vn -0.321176 0.343762 -0.882425
vn -0.321176 0.343762 -0.882425
vn -0.866026 6.78184e-07 0.499999
vn -0.866026 6.78184e-07 0.499999
vn -0.866026 6.78184e-07 0.499999
vn -0.866026 6.78184e-07 0.499999
vn 0.323718 -0.322738 0.889408
vn 0.323718 -0.322738 0.889408
vn 0.323718 -0.322738 0.889408
vn 0.323718 -0.322738 0.889408
vn 0.984808 2.5432e-07 -0.173648
vn 0.984808 2.54319e-07 -0.173648
vn 0.984808 2.5432e-07 -0.173648
vn -0.813247 0.343762 -0.469529
vn -0.813247 0.343762 -0.469529
vn -0.813247 0.343762 -0.469529
vn -0.813247 0.343762 -0.469529
vn -0.342019 -5.08638e-07 0.939693
vn -0.342019 -5.08638e-07 0.939693
vn -0.342019 -5.08638e-07 0.939693
vn 0.819682 -0.322738 0.473245
vn 0.819682 -0.322738 0.473245
vn 0.819682 -0.322738 0.473245
vn 0.819682 -0.322738 0.473245
vn 0.642788 0 -0.766044
vn 0.642788 0 -0.766044
vn 0.642788 0 -0.766044
vn 0.642788 0 -0.766044
vn -0.924791 0.343762 0.163065
vn -0.924791 0.343762 0.163065
vn -0.924791 0.343762 0.163065
vn 0.34202 1.69546e-07 0.939693
vn 0.34202 1.69546e-07 0.939693
vn 0.34202 1.69546e-07 0.939693
vn 0.932109 -0.322738 -0.164355
vn 0.932109 -0.322738 -0.164355
vn 0.932109 -0.322738 -0.164355
vn 0.932109 -0.322738 -0.164355
vn 2.38418e-07 8.08461e-14 -1
vn 2.38418e-07 8.0846e-14 -1
vn 2.38418e-07 8.08461e-14 -1
vn 2.38418e-07 8.0846e-14 -1
vn -0.603614 0.343762 0.719359
vn -0.603614 0.343762 0.719359
vn 0.866026 -3.39092e-07 0.499999
vn 0.866026 -3.39092e-07 0.499999
vn 0.866026 -3.39092e-07 0.499999
vn 0.866026 -3.39092e-07 0.499999
vn 0.608391 -0.322738 -0.725052
vn 0.608391 -0.322738 -0.725052
vn 0.608391 -0.322738 -0.725052
vn 0.608391 -0.322738 -0.725052
vn -0.642787 -1.69546e-07 -0.766045
vn -0.642787 -1.69546e-07 -0.766045
vn 0 0.343762 0.939057
vn 0 0.343762 0.939057
vn 0.984808 0 -0.173648
vn 0.984808 0 -0.173648
vn 0.984808 0 -0.173648
vn 0.984808 0 -0.173648
vn 1.60476e-07 -0.322738 -0.946488
vn 1.60476e-07 -0.322738 -0.946488
vn 1.60476e-07 -0.322738 -0.946488
vn -0.984808 -4.23865e-08 -0.173649
vn -0.984808 -4.23865e-08 -0.173649
vn -0.984808 -4.23865e-08 -0.173649
vn 0.603614 0.343762 0.719359
vn 0.603614 0.343762 0.719359
vn 0.603614 0.343762 0.719359
vn 0.642788 0 -0.766044
vn 0.642788 0 -0.766044
vn 0.642788 0 -0.766044
vn -0.608391 -0.322739 -0.725052
vn -0.608391 -0.322739 -0.725052
vn -0.608391 -0.322739 -0.725052
vn -0.866027 -6.78183e-07 0.499998
vn -0.866027 -6.78183e-07 0.499998
vn -0.866027 -6.78184e-07 0.499998
vn -0.866027 -6.78184e-07 0.499998
vn 0.924791 0.343762 0.163065
vn 0.924791 0.343762 0.163065
vn 0.92479 0.343762 0.163065
vn 0.924791 0.343762 0.163065
vn 0 0 -1
vn -0.932109 -0.322738 -0.164356
vn -0.932109 -0.322738 -0.164356
vn -0.932109 -0.322738 -0.164356
vn -0.932109 -0.322738 -0.164356
vn -0.34202 2.54319e-07 0.939693
vn -0.34202 2.54319e-07 0.939693
vn -0.34202 2.54319e-07 0.939693

# Mesh 'pCylinder3_pCylinder3' with 216 faces
g pCylinder3_pCylinder3
usemtl lambert1
f  1/1/1 2/2/1 3/3/2
f  3/3/2 4/4/2 1/1/1
f  4/4/2 3/3/2 5/5/3
f  5/5/3 6/6/3 4/4/2
f  6/6/3 5/5/3 7/7/4
f  7/7/4 8/8/4 6/6/3
f  8/8/4 7/7/4 9/9/5
f  9/9/5 10/10/5 8/8/4
f  10/10/5 9/9/5 11/11/6
f  11/11/6 12/12/6 10/10/5
f  12/12/6 11/11/6 13/13/7
f  13/13/7 14/14/7 12/12/6
f  14/14/7 13/13/7 15/15/8
f  15/15/8 16/16/8 14/14/7
f  16/16/8 15/15/8 17/17/9
f  17/17/9 18/18/9 16/16/8
f  18/18/9 17/17/9 19/19/10
f  19/19/10 20/20/10 18/18/9
f  20/20/10 19/19/10 21/21/11
f  21/21/11 22/22/11 20/20/10
f  22/22/11 21/21/11 23/23/12
f  23/23/12 24/24/12 22/22/11
f  24/25/12 23/26/12 25/27/13
f  25/27/13 26/28/13 24/25/12
f  26/28/13 25/27/13 27/29/14
f  27/29/14 28/30/14 26/28/13
f  28/30/14 27/29/14 29/31/15
f  29/31/15 30/32/15 28/30/14
f  30/32/15 29/31/15 31/33/16
f  31/33/16 32/34/16 30/32/15
f  32/34/16 31/33/16 33/35/17
f  33/35/17 34/36/17 32/34/16
f  34/36/17 33/35/17 35/37/18
f  35/37/18 36/38/18 34/36/17
f  36/38/18 35/37/18 2/2/1
f  2/2/1 1/1/1 36/38/18
f  37/39/19 38/40/19 39/41/20
f  39/41/20 40/42/20 37/39/19
f  40/42/20 39/41/20 41/43/21
f  41/43/21 42/44/21 40/42/20
f  42/44/21 41/43/21 43/45/22
f  43/45/22 44/46/22 42/44/21
f  44/46/22 43/45/22 45/47/23
f  45/47/23 46/48/23 44/46/22
f  46/48/23 45/47/23 47/49/24
f  47/49/24 48/50/24 46/48/23
f  48/50/24 47/49/24 49/51/7
f  49/51/7 50/52/7 48/50/24
f  50/52/7 49/51/7 51/53/25
f  51/53/25 52/54/25 50/52/7
f  52/54/25 51/53/25 53/55/26
f  53/55/26 54/56/26 52/54/25
f  54/56/26 53/55/26 55/57/27
f  55/57/27 56/58/27 54/56/26
f  56/58/27 55/57/27 57/59/28
f  57/59/28 58/60/28 56/58/27
f  58/61/28 57/62/28 59/63/29
f  59/63/29 60/64/29 58/61/28
f  60/64/29 59/63/29 61/65/30
f  61/65/30 62/66/30 60/64/29
f  62/66/30 61/65/30 63/67/31
f  63/67/31 64/68/31 62/66/30
f  64/68/31 63/67/31 65/69/32
f  65/69/32 66/70/32 64/68/31
f  66/70/32 65/69/32 67/71/33
f  67/71/33 68/72/33 66/70/32
f  68/72/33 67/71/33 69/73/34
f  69/73/34 70/74/34 68/72/33
f  70/74/34 69/73/34 71/75/35
f  71/75/35 72/76/35 70/74/34
f  72/76/35 71/75/35 38/40/19
f  38/40/19 37/39/19 72/76/35
f  39/77/36 38/78/37 73/79/38
f  41/80/39 39/77/36 73/79/38
f  43/81/40 41/80/39 73/79/38
f  45/82/41 43/81/40 73/79/38
f  47/83/42 45/82/41 73/79/38
f  49/84/43 47/83/42 73/79/38
f  51/85/44 49/84/43 73/79/38
f  53/86/45 51/85/44 73/79/38
f  55/87/46 53/86/45 73/79/38
f  57/88/47 55/87/46 73/79/38
f  59/89/48 57/88/47 73/79/38
f  61/90/49 59/89/48 73/79/38
f  63/91/50 61/90/49 73/79/38
f  65/92/51 63/91/50 73/79/38
f  67/93/52 65/92/51 73/79/38
f  69/94/53 67/93/52 73/79/38
f  71/95/54 69/94/53 73/79/38
f  38/78/37 71/95/54 73/79/38
f  74/96/55 75/97/56 76/98/57
f  75/97/56 77/99/58 76/98/57
f  77/99/58 78/100/59 76/98/57
f  78/100/59 79/101/60 76/98/57
f  79/101/60 80/102/61 76/98/57
f  80/102/61 81/103/62 76/98/57
f  81/103/62 82/104/63 76/98/57
f  82/104/63 83/105/64 76/98/57
f  83/105/64 84/106/65 76/98/57
f  84/106/65 85/107/66 76/98/57
f  85/107/66 86/108/67 76/98/57
f  86/108/67 87/109/68 76/98/57
f  87/109/68 88/110/69 76/98/57
f  88/110/69 89/111/70 76/98/57
f  89/111/70 90/112/71 76/98/57
f  90/112/71 91/113/72 76/98/57
f  91/113/72 92/114/73 76/98/57
f  92/114/73 74/96/55 76/98/57
f  93/115/74 94/116/75 95/117/76
f  95/117/76 96/118/77 93/115/74
f  75/119/78 40/120/79 42/121/79
f  42/121/79 77/122/80 75/119/78
f  97/123/81 98/124/82 99/125/83
f  99/125/83 100/126/84 97/123/81
f  78/127/85 44/128/86 46/129/87
f  46/129/87 79/130/88 78/127/85
f  101/131/89 102/132/89 103/133/90
f  103/133/90 104/134/89 101/131/89
f  80/135/91 48/136/92 50/137/92
f  50/137/92 81/138/93 80/135/91
f  105/139/94 106/140/94 107/141/95
f  107/141/95 108/142/96 105/139/94
f  82/143/97 52/144/98 54/145/99
f  54/145/99 83/146/100 82/143/97
f  109/147/101 110/148/102 111/149/103
f  111/149/103 112/150/104 109/147/101
f  84/151/105 56/152/105 58/153/106
f  58/153/106 85/154/107 84/151/105
f  113/155/108 114/156/109 115/157/110
f  115/157/110 116/158/111 113/155/108
f  86/159/112 60/160/113 62/161/114
f  62/161/114 87/162/115 86/159/112
f  117/163/116 118/164/117 119/165/118
f  119/165/118 120/166/119 117/163/116
f  88/167/120 64/168/121 66/169/122
f  66/169/122 89/170/122 88/167/120
f  121/171/123 122/172/124 123/173/125
f  123/173/125 124/174/126 121/171/123
f  90/175/127 68/176/128 70/177/129
f  70/177/129 91/178/127 90/175/127
f  125/179/130 126/180/131 127/181/132
f  127/181/132 128/182/133 125/179/130
f  92/183/134 72/184/134 37/185/135
f  37/185/135 74/186/136 92/183/134
f  94/116/137 37/187/138 40/188/139
f  40/188/139 95/117/140 94/116/137
f  95/117/141 40/189/142 75/190/143
f  75/190/143 96/118/144 95/117/141
f  96/118/145 75/191/146 74/192/147
f  74/192/147 93/115/148 96/118/145
f  93/115/149 74/186/150 37/185/151
f  37/185/151 94/116/152 93/115/149
f  98/124/153 42/193/154 44/194/154
f  44/194/154 99/125/155 98/124/153
f  99/125/156 44/195/157 78/196/158
f  78/196/158 100/126/156 99/125/156
f  100/126/159 78/197/160 77/198/160
f  77/198/160 97/123/160 100/126/159
f  97/123/161 77/122/162 42/121/163
f  42/121/163 98/124/164 97/123/161
f  102/132/165 46/199/166 48/200/167
f  48/200/167 103/133/168 102/132/165
f  103/133/169 48/201/170 80/202/171
f  80/202/171 104/134/172 103/133/169
f  104/134/173 80/203/174 79/204/175
f  79/204/175 101/131/176 104/134/173
f  101/131/177 79/130/178 46/129/179
f  46/129/179 102/132/178 101/131/177
f  106/140/180 50/205/181 52/206/182
f  52/206/182 107/141/183 106/140/180
f  107/141/184 52/207/185 82/208/185
f  82/208/185 108/142/186 107/141/184
f  108/142/187 82/209/188 81/210/189
f  81/210/189 105/139/190 108/142/187
f  105/139/191 81/138/192 50/137/193
f  50/137/193 106/140/194 105/139/191
f  110/148/195 54/211/196 56/212/197
f  56/212/197 111/149/195 110/148/195
f  111/149/198 56/213/199 84/214/200
f  84/214/200 112/150/198 111/149/198
f  112/150/201 84/215/202 83/216/203
f  83/216/203 109/147/204 112/150/201
f  109/147/205 83/146/206 54/145/207
f  54/145/207 110/148/208 109/147/205
f  114/156/209 58/217/210 60/218/209
f  60/218/209 115/157/209 114/156/209
f  115/157/211 60/219/212 86/220/213
f  86/220/213 116/158/214 115/157/211
f  116/158/215 86/221/216 85/222/217
f  85/222/217 113/155/218 116/158/215
f  113/155/219 85/154/220 58/153/219
f  58/153/219 114/156/219 113/155/219
f  118/164/221 62/223/222 64/224/222
f  64/224/222 119/165/222 118/164/221
f  119/165/223 64/225/224 88/226/225
f  88/226/225 120/166/226 119/165/223
f  120/166/227 88/227/228 87/228/228
f  87/228/228 117/163/229 120/166/227
f  117/163/230 87/162/231 62/161/232
f  62/161/232 118/164/232 117/163/230
f  122/172/233 66/229/234 68/230/235
f  68/230/235 123/173/233 122/172/233
f  123/173/236 68/231/237 90/232/238
f  90/232/238 124/174/236 123/173/236
f  124/174/239 90/233/240 89/234/240
f  89/234/240 121/171/241 124/174/239
f  121/171/242 89/170/243 66/169/244
f  66/169/244 122/172/245 121/171/242
f  126/180/246 70/235/247 72/236/248
f  72/236/248 127/181/249 126/180/246
f  127/181/250 72/237/250 92/238/250
f  92/238/250 128/182/250 127/181/250
f  128/182/251 92/239/252 91/240/253
f  91/240/253 125/179/254 128/182/251
f  125/179/255 91/178/255 70/177/256
f  70/177/256 126/180/257 125/179/255

